<mxfile host="app.diagrams.net" modified="2024-04-13T02:13:26.406Z" agent="Mozilla/5.0 (Macintosh; Intel Mac OS X 10_15_7) AppleWebKit/537.36 (KHTML, like Gecko) Chrome/123.0.0.0 Safari/537.36" version="24.2.3" etag="e0Uuyd0li22MKZ6nlgD6" type="github">
  <diagram name="페이지-1" id="sL_Ushx4_72viCRCiu5S">
    <mxGraphModel>
      <root>
        <mxCell id="0" />
        <mxCell id="1" parent="0" />
      </root>
    </mxGraphModel>
  </diagram>
</mxfile>
